<?xml version="1.0" encoding="utf-8"?>
<!-- Generator: Adobe Illustrator 26.0.2, SVG Export Plug-In . SVG Version: 6.00 Build 0)  -->
<svg version="1.1"
	 id="svg2" inkscape:version="0.48.3.1 r9886" sodipodi:docname="New document 1" xmlns:cc="http://creativecommons.org/ns#" xmlns:dc="http://purl.org/dc/elements/1.1/" xmlns:inkscape="http://www.inkscape.org/namespaces/inkscape" xmlns:ns1="http://sozi.baierouge.fr" xmlns:rdf="http://www.w3.org/1999/02/22-rdf-syntax-ns#" xmlns:sodipodi="http://sodipodi.sourceforge.net/DTD/sodipodi-0.dtd" xmlns:svg="http://www.w3.org/2000/svg"
	 xmlns="http://www.w3.org/2000/svg" xmlns:xlink="http://www.w3.org/1999/xlink" x="0px" y="0px" viewBox="0 0 54.3 55.6"
	 style="enable-background:new 0 0 54.3 55.6;" xml:space="preserve">
<sodipodi:namedview  bordercolor="#666666" borderopacity="1.0" fit-margin-bottom="0" fit-margin-left="0" fit-margin-right="0" fit-margin-top="0" id="base" inkscape:current-layer="layer1" inkscape:cx="41.360346" inkscape:cy="26.722271" inkscape:document-units="px" inkscape:pageopacity="0.0" inkscape:pageshadow="2" inkscape:window-height="1003" inkscape:window-maximized="1" inkscape:window-width="1680" inkscape:window-x="-4" inkscape:window-y="-4" inkscape:zoom="1.7904509" pagecolor="#ffffff" showgrid="false">
	
		<inkscape:grid  dotted="true" empspacing="5" enabled="true" id="grid3766" originx="-344.9375px" originy="-682.61218px" snapvisiblegridlinesonly="true" type="xygrid" visible="true">
		</inkscape:grid>
</sodipodi:namedview>
<path d="M54.3,0L54.3,0l-9.1,7.3c-4.8-4-11-6.5-17.7-6.5C12.4,0.8,0,13.2,0,28.3c0,15.1,12.4,27.3,27.6,27.3
	c11.9,0,22.1-7.5,25.9-18l-9.9-2.4c-2.6,6.2-8.8,10.5-16,10.5c-9.7,0-17.4-7.7-17.4-17.4c0-9.7,7.7-17.7,17.4-17.7
	c3.6,0,6.9,1.1,9.7,3L29,20.2c0.1,0.3,0.1,0.5,0.2,0.8l25.2,4.7V0z"/>
</svg>
